<svg width="34" height="34" viewBox="0 0 34 34" fill="none" xmlns="http://www.w3.org/2000/svg">
<path d="M17.98 7.57655L19.6977 10.9556C19.9331 11.4194 20.5484 11.8736 21.0648 11.9501L24.1371 12.4455C26.1043 12.7584 26.565 14.1783 25.1692 15.6002L22.7917 18.0085C22.3948 18.4121 22.1685 19.2006 22.3032 19.752L23.0037 22.7092C23.5545 25.0439 22.3205 25.9607 20.2502 24.7512L17.3581 23.0614C16.8315 22.7525 15.9774 22.765 15.4617 23.0732L12.5927 24.7915C10.539 26.0196 9.29063 25.1205 9.81339 22.7812L10.4816 19.8209C10.6063 19.2675 10.3808 18.4814 9.97718 18.0845L7.56892 15.7069C6.15591 14.3065 6.59876 12.8817 8.55852 12.5417L11.6185 12.013C12.1351 11.9195 12.7456 11.4702 12.9708 10.9993L14.6478 7.59316C15.5499 5.75427 17.0528 5.74785 17.98 7.57655Z" fill="#F05922"/>
</svg>
