<svg width="26" height="26" viewBox="0 0 26 26" fill="none" xmlns="http://www.w3.org/2000/svg">
<path d="M13.1329 12.6831C13.1079 12.6831 13.0912 12.6831 13.0662 12.6831C13.0246 12.6747 12.9662 12.6747 12.9162 12.6831C10.4996 12.6081 8.67456 10.7081 8.67456 8.36641C8.67456 5.98308 10.6162 4.04141 12.9996 4.04141C15.3829 4.04141 17.3246 5.98308 17.3246 8.36641C17.3162 10.7081 15.4829 12.6081 13.1579 12.6831C13.1496 12.6831 13.1412 12.6831 13.1329 12.6831ZM12.9996 5.29141C11.3079 5.29141 9.92456 6.67475 9.92456 8.36641C9.92456 10.0331 11.2246 11.3747 12.8829 11.4331C12.9246 11.4247 13.0412 11.4247 13.1496 11.4331C14.7829 11.3581 16.0662 10.0164 16.0746 8.36641C16.0746 6.67475 14.6912 5.29141 12.9996 5.29141Z" fill="#292D32"/>
<path d="M13.1412 21.7916C11.5079 21.7916 9.86622 21.3749 8.62455 20.5416C7.46622 19.7749 6.83289 18.7249 6.83289 17.5833C6.83289 16.4416 7.46622 15.3833 8.62455 14.6083C11.1246 12.9499 15.1746 12.9499 17.6579 14.6083C18.8079 15.3749 19.4496 16.4249 19.4496 17.5666C19.4496 18.7083 18.8162 19.7666 17.6579 20.5416C16.4079 21.3749 14.7746 21.7916 13.1412 21.7916ZM9.31622 15.6583C8.51622 16.1916 8.08289 16.8749 8.08289 17.5916C8.08289 18.2999 8.52455 18.9833 9.31622 19.5083C11.3912 20.8999 14.8912 20.8999 16.9662 19.5083C17.7662 18.9749 18.1996 18.2916 18.1996 17.5749C18.1996 16.8666 17.7579 16.1833 16.9662 15.6583C14.8912 14.2749 11.3912 14.2749 9.31622 15.6583Z" fill="#292D32"/>
</svg>
