<svg width="27" height="28" viewBox="0 0 27 28" fill="none" xmlns="http://www.w3.org/2000/svg">
<path d="M14.9801 4.57658L16.6978 7.9556C16.9331 8.41939 17.5485 8.87362 18.0649 8.95012L21.1371 9.44553C23.1044 9.75844 23.565 11.1784 22.1692 12.6002L19.7918 15.0085C19.3948 15.4121 19.1686 16.2007 19.3032 16.752L20.0038 19.7092C20.5545 22.044 19.3205 22.9607 17.2503 21.7512L14.3582 20.0614C13.8315 19.7525 12.9774 19.765 12.4618 20.0732L9.59278 21.7915C7.53901 23.0197 6.29069 22.1206 6.81345 19.7812L7.48163 16.8209C7.60641 16.2676 7.38087 15.4814 6.97724 15.0845L4.56898 12.707C3.15597 11.3065 3.59882 9.88178 5.55859 9.54176L8.61856 9.01304C9.13513 8.91953 9.74563 8.47027 9.97089 7.99937L11.6478 4.59319C12.55 2.7543 14.0529 2.74788 14.9801 4.57658Z" fill="#F05922"/>
</svg>
